<!DOCTYPE svg PUBLIC "-//W3C//DTD SVG 1.0//EN" "http://www.w3.org/TR/2001/REC-SVG-20010904/DTD/svg10.dtd">
<svg xmlns="http://www.w3.org/2000/svg" xmlns:inkspace="http://www.inkscape.org/namespaces/inkscape" xmlns:xlink="http://www.w3.org/1999/xlink" viewBox="0 0 796 1160">
  <defs id="defs_block">
    <filter height="1.504" id="filter_blur" inkspace:collect="always" width="1.1575" x="-0.07875" y="-0.252">
      <feGaussianBlur id="feGaussianBlur3780" inkspace:collect="always" stdDeviation="4.2"/>
    </filter>
  </defs>
  <title>blockdiag</title>
  <desc>blockdiag {
    node_width = 180
    node_height = 120

    group {
        orientation = portrait;
        shape = line;
        style = none;

        group {
            shape = line;
            style = none;
            orientation = portrait;
            group {
                orientation = portrait;
                label = "0. &#12527;&#12540;&#12463;&#12501;&#12525;&#12540;&#28310;&#20633;";
                color = "#ffeed9";
                "FLOW&#36215;&#21205;&#27598;&#12395;&#24517;&#35201;&#12394;&#28310;&#20633;&#12434;&#34892;&#12358;";
                "&#21021;&#22238;FLOW&#31435;&#12385;&#19978;&#12370;&#26178;&#12395;&#24517;&#35201;&#12394;&#28310;&#20633;&#12434;&#34892;&#12358;";
            }
        }

        group {
            shape = line;
            style = none;
            orientation = portrait;
            group {
                orientation = portrait;
                label = "1. &#30740;&#31350;&#28310;&#20633;&#12501;&#12455;&#12540;&#12474;";
                color = "#fcdcb1";
                "&#12487;&#12540;&#12479;&#20998;&#26512;&#12484;&#12540;&#12523;&#12398;&#29872;&#22659;&#27083;&#31689;&#12434;&#34892;&#12358;";
                "&#12487;&#12540;&#12479;&#12463;&#12522;&#12540;&#12491;&#12531;&#12464;&#12484;&#12540;&#12523;&#12398;&#29872;&#22659;&#27083;&#31689;&#12434;&#34892;&#12358;";
                "GakuNin RDM&#12392;&#36899;&#25658;&#12377;&#12427;";
            }
        }
        
        group {
            shape = line;
            style = none;
            orientation = portrait;
            group {
                orientation = portrait;
                label = "2. &#23455;&#39443;&#26399;&#12501;&#12455;&#12540;&#12474;";
                color = "#ffd6a1";
                "&#23455;&#39443;&#12434;&#38283;&#22987;&#12377;&#12427;";
                "&#23455;&#39443;&#12497;&#12452;&#12503;&#12521;&#12452;&#12531;&#12434;&#12481;&#12455;&#12483;&#12463;&#12377;&#12427;";
                "&#23455;&#39443;&#12497;&#12452;&#12503;&#12521;&#12452;&#12531;&#12434;&#23455;&#34892;&#12377;&#12427;";
                "&#12522;&#12509;&#12472;&#12488;&#12522;&#27083;&#25104;&#12434;&#12514;&#12491;&#12479;&#12522;&#12531;&#12464;&#12377;&#12427;";
            }
        }
        group {
            shape = line;
            style = none;
            orientation = portrait;
            group {
                orientation = portrait;
                label = "3. &#23455;&#39443;&#32066;&#20102;&#24460;&#12501;&#12455;&#12540;&#12474;";
                color = "#fcb14e";
                "&#30740;&#31350;&#25104;&#26524;&#12434;&#20844;&#38283;&#12377;&#12427;";
            }
        }
    }

    "FLOW&#36215;&#21205;&#27598;&#12395;&#24517;&#35201;&#12394;&#28310;&#20633;&#12434;&#34892;&#12358;" -&gt; "&#21021;&#22238;FLOW&#31435;&#12385;&#19978;&#12370;&#26178;&#12395;&#24517;&#35201;&#12394;&#28310;&#20633;&#12434;&#34892;&#12358;";
    "&#21021;&#22238;FLOW&#31435;&#12385;&#19978;&#12370;&#26178;&#12395;&#24517;&#35201;&#12394;&#28310;&#20633;&#12434;&#34892;&#12358;" -&gt; "&#12487;&#12540;&#12479;&#12463;&#12522;&#12540;&#12491;&#12531;&#12464;&#12484;&#12540;&#12523;&#12398;&#29872;&#22659;&#27083;&#31689;&#12434;&#34892;&#12358;";
    "&#21021;&#22238;FLOW&#31435;&#12385;&#19978;&#12370;&#26178;&#12395;&#24517;&#35201;&#12394;&#28310;&#20633;&#12434;&#34892;&#12358;" -&gt; "&#12487;&#12540;&#12479;&#20998;&#26512;&#12484;&#12540;&#12523;&#12398;&#29872;&#22659;&#27083;&#31689;&#12434;&#34892;&#12358;";
    "&#21021;&#22238;FLOW&#31435;&#12385;&#19978;&#12370;&#26178;&#12395;&#24517;&#35201;&#12394;&#28310;&#20633;&#12434;&#34892;&#12358;" -&gt; "GakuNin RDM&#12392;&#36899;&#25658;&#12377;&#12427;";

    "&#12487;&#12540;&#12479;&#12463;&#12522;&#12540;&#12491;&#12531;&#12464;&#12484;&#12540;&#12523;&#12398;&#29872;&#22659;&#27083;&#31689;&#12434;&#34892;&#12358;" -&gt; "&#23455;&#39443;&#12434;&#38283;&#22987;&#12377;&#12427;";
    "&#12487;&#12540;&#12479;&#20998;&#26512;&#12484;&#12540;&#12523;&#12398;&#29872;&#22659;&#27083;&#31689;&#12434;&#34892;&#12358;" -&gt; "&#23455;&#39443;&#12434;&#38283;&#22987;&#12377;&#12427;";
    "GakuNin RDM&#12392;&#36899;&#25658;&#12377;&#12427;" -&gt; "&#23455;&#39443;&#12434;&#38283;&#22987;&#12377;&#12427;";
    
    "&#12487;&#12540;&#12479;&#12463;&#12522;&#12540;&#12491;&#12531;&#12464;&#12484;&#12540;&#12523;&#12398;&#29872;&#22659;&#27083;&#31689;&#12434;&#34892;&#12358;" -&gt; "&#12522;&#12509;&#12472;&#12488;&#12522;&#27083;&#25104;&#12434;&#12514;&#12491;&#12479;&#12522;&#12531;&#12464;&#12377;&#12427;";
    "&#12487;&#12540;&#12479;&#20998;&#26512;&#12484;&#12540;&#12523;&#12398;&#29872;&#22659;&#27083;&#31689;&#12434;&#34892;&#12358;" -&gt; "&#12522;&#12509;&#12472;&#12488;&#12522;&#27083;&#25104;&#12434;&#12514;&#12491;&#12479;&#12522;&#12531;&#12464;&#12377;&#12427;";
    "GakuNin RDM&#12392;&#36899;&#25658;&#12377;&#12427;" -&gt; "&#12522;&#12509;&#12472;&#12488;&#12522;&#27083;&#25104;&#12434;&#12514;&#12491;&#12479;&#12522;&#12531;&#12464;&#12377;&#12427;";

    "&#23455;&#39443;&#12434;&#38283;&#22987;&#12377;&#12427;" -&gt; "&#23455;&#39443;&#12497;&#12452;&#12503;&#12521;&#12452;&#12531;&#12434;&#12481;&#12455;&#12483;&#12463;&#12377;&#12427;";
    "&#23455;&#39443;&#12497;&#12452;&#12503;&#12521;&#12452;&#12531;&#12434;&#12481;&#12455;&#12483;&#12463;&#12377;&#12427;" -&gt; "&#23455;&#39443;&#12497;&#12452;&#12503;&#12521;&#12452;&#12531;&#12434;&#23455;&#34892;&#12377;&#12427;";

    "&#23455;&#39443;&#12497;&#12452;&#12503;&#12521;&#12452;&#12531;&#12434;&#23455;&#34892;&#12377;&#12427;" -&gt; "&#30740;&#31350;&#25104;&#26524;&#12434;&#20844;&#38283;&#12377;&#12427;";
    "&#12522;&#12509;&#12472;&#12488;&#12522;&#27083;&#25104;&#12434;&#12514;&#12491;&#12479;&#12522;&#12531;&#12464;&#12377;&#12427;" -&gt; "&#30740;&#31350;&#25104;&#26524;&#12434;&#20844;&#38283;&#12377;&#12427;";
}</desc>
  <rect fill="rgb(255,238,217)" height="300" style="filter:url(#filter_blur)" width="196" x="56" y="30"/>
  <rect fill="rgb(252,220,177)" height="140" style="filter:url(#filter_blur)" width="684" x="56" y="350"/>
  <rect fill="rgb(255,214,161)" height="460" style="filter:url(#filter_blur)" width="440" x="56" y="510"/>
  <rect fill="rgb(252,177,78)" height="140" style="filter:url(#filter_blur)" width="196" x="56" y="990"/>
  <rect fill="rgb(0,0,0)" height="120" stroke="rgb(0,0,0)" style="filter:url(#filter_blur);opacity:0.7;fill-opacity:1" width="180" x="67" y="46"/>
  <rect fill="rgb(0,0,0)" height="120" stroke="rgb(0,0,0)" style="filter:url(#filter_blur);opacity:0.7;fill-opacity:1" width="180" x="67" y="206"/>
  <rect fill="rgb(0,0,0)" height="120" stroke="rgb(0,0,0)" style="filter:url(#filter_blur);opacity:0.7;fill-opacity:1" width="180" x="67" y="366"/>
  <rect fill="rgb(0,0,0)" height="120" stroke="rgb(0,0,0)" style="filter:url(#filter_blur);opacity:0.7;fill-opacity:1" width="180" x="311" y="366"/>
  <rect fill="rgb(0,0,0)" height="120" stroke="rgb(0,0,0)" style="filter:url(#filter_blur);opacity:0.7;fill-opacity:1" width="180" x="555" y="366"/>
  <rect fill="rgb(0,0,0)" height="120" stroke="rgb(0,0,0)" style="filter:url(#filter_blur);opacity:0.7;fill-opacity:1" width="180" x="67" y="526"/>
  <rect fill="rgb(0,0,0)" height="120" stroke="rgb(0,0,0)" style="filter:url(#filter_blur);opacity:0.7;fill-opacity:1" width="180" x="67" y="686"/>
  <rect fill="rgb(0,0,0)" height="120" stroke="rgb(0,0,0)" style="filter:url(#filter_blur);opacity:0.7;fill-opacity:1" width="180" x="67" y="846"/>
  <rect fill="rgb(0,0,0)" height="120" stroke="rgb(0,0,0)" style="filter:url(#filter_blur);opacity:0.7;fill-opacity:1" width="180" x="311" y="526"/>
  <rect fill="rgb(0,0,0)" height="120" stroke="rgb(0,0,0)" style="filter:url(#filter_blur);opacity:0.7;fill-opacity:1" width="180" x="67" y="1006"/>
  <rect fill="rgb(255,255,255)" height="120" stroke="rgb(0,0,0)" width="180" x="64" y="40"/>
  <text fill="rgb(0,0,0)" font-family="sans-serif" font-size="11" font-style="normal" font-weight="normal" text-anchor="middle" textLength="156" x="154.0" y="106">FLOW&#36215;&#21205;&#27598;&#12395;&#24517;&#35201;&#12394;&#28310;&#20633;&#12434;&#34892;&#12358;</text>
  <rect fill="rgb(255,255,255)" height="120" stroke="rgb(0,0,0)" width="180" x="64" y="200"/>
  <text fill="rgb(0,0,0)" font-family="sans-serif" font-size="11" font-style="normal" font-weight="normal" text-anchor="middle" textLength="178" x="154.0" y="260">&#21021;&#22238;FLOW&#31435;&#12385;&#19978;&#12370;&#26178;&#12395;&#24517;&#35201;&#12394;&#28310;&#20633;&#12434;</text>
  <text fill="rgb(0,0,0)" font-family="sans-serif" font-size="11" font-style="normal" font-weight="normal" text-anchor="middle" textLength="22" x="154.0" y="273">&#34892;&#12358;</text>
  <rect fill="rgb(255,255,255)" height="120" stroke="rgb(0,0,0)" width="180" x="64" y="360"/>
  <text fill="rgb(0,0,0)" font-family="sans-serif" font-size="11" font-style="normal" font-weight="normal" text-anchor="middle" textLength="176" x="154.0" y="426">&#12487;&#12540;&#12479;&#20998;&#26512;&#12484;&#12540;&#12523;&#12398;&#29872;&#22659;&#27083;&#31689;&#12434;&#34892;&#12358;</text>
  <rect fill="rgb(255,255,255)" height="120" stroke="rgb(0,0,0)" width="180" x="308" y="360"/>
  <text fill="rgb(0,0,0)" font-family="sans-serif" font-size="11" font-style="normal" font-weight="normal" text-anchor="middle" textLength="176" x="398.0" y="420">&#12487;&#12540;&#12479;&#12463;&#12522;&#12540;&#12491;&#12531;&#12464;&#12484;&#12540;&#12523;&#12398;&#29872;&#22659;&#27083;</text>
  <text fill="rgb(0,0,0)" font-family="sans-serif" font-size="11" font-style="normal" font-weight="normal" text-anchor="middle" textLength="44" x="398.0" y="433">&#31689;&#12434;&#34892;&#12358;</text>
  <rect fill="rgb(255,255,255)" height="120" stroke="rgb(0,0,0)" width="180" x="552" y="360"/>
  <text fill="rgb(0,0,0)" font-family="sans-serif" font-size="11" font-style="normal" font-weight="normal" text-anchor="middle" textLength="121" x="642.5" y="426">GakuNin RDM&#12392;&#36899;&#25658;&#12377;&#12427;</text>
  <rect fill="rgb(255,255,255)" height="120" stroke="rgb(0,0,0)" width="180" x="64" y="520"/>
  <text fill="rgb(0,0,0)" font-family="sans-serif" font-size="11" font-style="normal" font-weight="normal" text-anchor="middle" textLength="77" x="154.5" y="586">&#23455;&#39443;&#12434;&#38283;&#22987;&#12377;&#12427;</text>
  <rect fill="rgb(255,255,255)" height="120" stroke="rgb(0,0,0)" width="180" x="64" y="680"/>
  <text fill="rgb(0,0,0)" font-family="sans-serif" font-size="11" font-style="normal" font-weight="normal" text-anchor="middle" textLength="165" x="154.5" y="746">&#23455;&#39443;&#12497;&#12452;&#12503;&#12521;&#12452;&#12531;&#12434;&#12481;&#12455;&#12483;&#12463;&#12377;&#12427;</text>
  <rect fill="rgb(255,255,255)" height="120" stroke="rgb(0,0,0)" width="180" x="64" y="840"/>
  <text fill="rgb(0,0,0)" font-family="sans-serif" font-size="11" font-style="normal" font-weight="normal" text-anchor="middle" textLength="143" x="154.5" y="906">&#23455;&#39443;&#12497;&#12452;&#12503;&#12521;&#12452;&#12531;&#12434;&#23455;&#34892;&#12377;&#12427;</text>
  <rect fill="rgb(255,255,255)" height="120" stroke="rgb(0,0,0)" width="180" x="308" y="520"/>
  <text fill="rgb(0,0,0)" font-family="sans-serif" font-size="11" font-style="normal" font-weight="normal" text-anchor="middle" textLength="176" x="398.0" y="586">&#12522;&#12509;&#12472;&#12488;&#12522;&#27083;&#25104;&#12434;&#12514;&#12491;&#12479;&#12522;&#12531;&#12464;&#12377;&#12427;</text>
  <rect fill="rgb(255,255,255)" height="120" stroke="rgb(0,0,0)" width="180" x="64" y="1000"/>
  <text fill="rgb(0,0,0)" font-family="sans-serif" font-size="11" font-style="normal" font-weight="normal" text-anchor="middle" textLength="99" x="154.5" y="1066">&#30740;&#31350;&#25104;&#26524;&#12434;&#20844;&#38283;&#12377;&#12427;</text>
  <path d="M 154 160 L 154 192" fill="none" stroke="rgb(0,0,0)"/>
  <polygon fill="rgb(0,0,0)" points="154,199 150,192 158,192 154,199" stroke="rgb(0,0,0)"/>
  <path d="M 154 320 L 154 340" fill="none" stroke="rgb(0,0,0)"/>
  <path d="M 154 340 L 398 340" fill="none" stroke="rgb(0,0,0)"/>
  <path d="M 398 340 L 398 352" fill="none" stroke="rgb(0,0,0)"/>
  <polygon fill="rgb(0,0,0)" points="398,359 394,352 402,352 398,359" stroke="rgb(0,0,0)"/>
  <path d="M 154 320 L 154 352" fill="none" stroke="rgb(0,0,0)"/>
  <polygon fill="rgb(0,0,0)" points="154,359 150,352 158,352 154,359" stroke="rgb(0,0,0)"/>
  <path d="M 154 320 L 154 340" fill="none" stroke="rgb(0,0,0)"/>
  <path d="M 154 340 L 642 340" fill="none" stroke="rgb(0,0,0)"/>
  <path d="M 642 340 L 642 352" fill="none" stroke="rgb(0,0,0)"/>
  <polygon fill="rgb(0,0,0)" points="642,359 638,352 646,352 642,359" stroke="rgb(0,0,0)"/>
  <path d="M 154 160 L 154 192" fill="none" stroke="rgb(0,0,0)"/>
  <polygon fill="rgb(0,0,0)" points="154,199 150,192 158,192 154,199" stroke="rgb(0,0,0)"/>
  <path d="M 154 320 L 154 340" fill="none" stroke="rgb(0,0,0)"/>
  <path d="M 154 340 L 398 340" fill="none" stroke="rgb(0,0,0)"/>
  <path d="M 398 340 L 398 352" fill="none" stroke="rgb(0,0,0)"/>
  <polygon fill="rgb(0,0,0)" points="398,359 394,352 402,352 398,359" stroke="rgb(0,0,0)"/>
  <path d="M 154 320 L 154 352" fill="none" stroke="rgb(0,0,0)"/>
  <polygon fill="rgb(0,0,0)" points="154,359 150,352 158,352 154,359" stroke="rgb(0,0,0)"/>
  <path d="M 154 320 L 154 340" fill="none" stroke="rgb(0,0,0)"/>
  <path d="M 154 340 L 642 340" fill="none" stroke="rgb(0,0,0)"/>
  <path d="M 642 340 L 642 352" fill="none" stroke="rgb(0,0,0)"/>
  <polygon fill="rgb(0,0,0)" points="642,359 638,352 646,352 642,359" stroke="rgb(0,0,0)"/>
  <path d="M 154 480 L 154 512" fill="none" stroke="rgb(0,0,0)"/>
  <polygon fill="rgb(0,0,0)" points="154,519 150,512 158,512 154,519" stroke="rgb(0,0,0)"/>
  <path d="M 154 480 L 154 500" fill="none" stroke="rgb(0,0,0)"/>
  <path d="M 154 500 L 398 500" fill="none" stroke="rgb(0,0,0)"/>
  <path d="M 398 500 L 398 512" fill="none" stroke="rgb(0,0,0)"/>
  <polygon fill="rgb(0,0,0)" points="398,519 394,512 402,512 398,519" stroke="rgb(0,0,0)"/>
  <path d="M 398 480 L 398 500" fill="none" stroke="rgb(0,0,0)"/>
  <path d="M 154 500 L 398 500" fill="none" stroke="rgb(0,0,0)"/>
  <path d="M 154 500 L 154 512" fill="none" stroke="rgb(0,0,0)"/>
  <polygon fill="rgb(0,0,0)" points="154,519 150,512 158,512 154,519" stroke="rgb(0,0,0)"/>
  <path d="M 398 480 L 398 512" fill="none" stroke="rgb(0,0,0)"/>
  <polygon fill="rgb(0,0,0)" points="398,519 394,512 402,512 398,519" stroke="rgb(0,0,0)"/>
  <path d="M 642 480 L 642 500" fill="none" stroke="rgb(0,0,0)"/>
  <path d="M 154 500 L 394.0 500" fill="none" stroke="rgb(0,0,0)"/>
  <path d="M 394.0 500.0 A4.0,4.0 0 0 1 402.0 500.0" fill="none" stroke="rgb(0,0,0)"/>
  <path d="M 402.0 500 L 642 500" fill="none" stroke="rgb(0,0,0)"/>
  <path d="M 154 500 L 154 512" fill="none" stroke="rgb(0,0,0)"/>
  <polygon fill="rgb(0,0,0)" points="154,519 150,512 158,512 154,519" stroke="rgb(0,0,0)"/>
  <path d="M 642 480 L 642 500" fill="none" stroke="rgb(0,0,0)"/>
  <path d="M 398 500 L 642 500" fill="none" stroke="rgb(0,0,0)"/>
  <path d="M 398 500 L 398 512" fill="none" stroke="rgb(0,0,0)"/>
  <polygon fill="rgb(0,0,0)" points="398,519 394,512 402,512 398,519" stroke="rgb(0,0,0)"/>
  <path d="M 154 480 L 154 512" fill="none" stroke="rgb(0,0,0)"/>
  <polygon fill="rgb(0,0,0)" points="154,519 150,512 158,512 154,519" stroke="rgb(0,0,0)"/>
  <path d="M 154 480 L 154 500" fill="none" stroke="rgb(0,0,0)"/>
  <path d="M 154 500 L 398 500" fill="none" stroke="rgb(0,0,0)"/>
  <path d="M 398 500 L 398 512" fill="none" stroke="rgb(0,0,0)"/>
  <polygon fill="rgb(0,0,0)" points="398,519 394,512 402,512 398,519" stroke="rgb(0,0,0)"/>
  <path d="M 398 480 L 398 500" fill="none" stroke="rgb(0,0,0)"/>
  <path d="M 154 500 L 398 500" fill="none" stroke="rgb(0,0,0)"/>
  <path d="M 154 500 L 154 512" fill="none" stroke="rgb(0,0,0)"/>
  <polygon fill="rgb(0,0,0)" points="154,519 150,512 158,512 154,519" stroke="rgb(0,0,0)"/>
  <path d="M 398 480 L 398 512" fill="none" stroke="rgb(0,0,0)"/>
  <polygon fill="rgb(0,0,0)" points="398,519 394,512 402,512 398,519" stroke="rgb(0,0,0)"/>
  <path d="M 642 480 L 642 500" fill="none" stroke="rgb(0,0,0)"/>
  <path d="M 154 500 L 394.0 500" fill="none" stroke="rgb(0,0,0)"/>
  <path d="M 394.0 500.0 A4.0,4.0 0 0 1 402.0 500.0" fill="none" stroke="rgb(0,0,0)"/>
  <path d="M 402.0 500 L 642 500" fill="none" stroke="rgb(0,0,0)"/>
  <path d="M 154 500 L 154 512" fill="none" stroke="rgb(0,0,0)"/>
  <polygon fill="rgb(0,0,0)" points="154,519 150,512 158,512 154,519" stroke="rgb(0,0,0)"/>
  <path d="M 642 480 L 642 500" fill="none" stroke="rgb(0,0,0)"/>
  <path d="M 398 500 L 642 500" fill="none" stroke="rgb(0,0,0)"/>
  <path d="M 398 500 L 398 512" fill="none" stroke="rgb(0,0,0)"/>
  <polygon fill="rgb(0,0,0)" points="398,519 394,512 402,512 398,519" stroke="rgb(0,0,0)"/>
  <path d="M 154 640 L 154 672" fill="none" stroke="rgb(0,0,0)"/>
  <polygon fill="rgb(0,0,0)" points="154,679 150,672 158,672 154,679" stroke="rgb(0,0,0)"/>
  <path d="M 154 800 L 154 832" fill="none" stroke="rgb(0,0,0)"/>
  <polygon fill="rgb(0,0,0)" points="154,839 150,832 158,832 154,839" stroke="rgb(0,0,0)"/>
  <path d="M 154 960 L 154 992" fill="none" stroke="rgb(0,0,0)"/>
  <polygon fill="rgb(0,0,0)" points="154,999 150,992 158,992 154,999" stroke="rgb(0,0,0)"/>
  <path d="M 398 640 L 398 980" fill="none" stroke="rgb(0,0,0)"/>
  <path d="M 154 980 L 398 980" fill="none" stroke="rgb(0,0,0)"/>
  <path d="M 154 980 L 154 992" fill="none" stroke="rgb(0,0,0)"/>
  <polygon fill="rgb(0,0,0)" points="154,999 150,992 158,992 154,999" stroke="rgb(0,0,0)"/>
  <path d="M 154 640 L 154 672" fill="none" stroke="rgb(0,0,0)"/>
  <polygon fill="rgb(0,0,0)" points="154,679 150,672 158,672 154,679" stroke="rgb(0,0,0)"/>
  <path d="M 154 800 L 154 832" fill="none" stroke="rgb(0,0,0)"/>
  <polygon fill="rgb(0,0,0)" points="154,839 150,832 158,832 154,839" stroke="rgb(0,0,0)"/>
  <path d="M 154 960 L 154 992" fill="none" stroke="rgb(0,0,0)"/>
  <polygon fill="rgb(0,0,0)" points="154,999 150,992 158,992 154,999" stroke="rgb(0,0,0)"/>
  <path d="M 398 640 L 398 980" fill="none" stroke="rgb(0,0,0)"/>
  <path d="M 154 980 L 398 980" fill="none" stroke="rgb(0,0,0)"/>
  <path d="M 154 980 L 154 992" fill="none" stroke="rgb(0,0,0)"/>
  <polygon fill="rgb(0,0,0)" points="154,999 150,992 158,992 154,999" stroke="rgb(0,0,0)"/>
  <path d="M 154 160 L 154 192" fill="none" stroke="rgb(0,0,0)"/>
  <polygon fill="rgb(0,0,0)" points="154,199 150,192 158,192 154,199" stroke="rgb(0,0,0)"/>
  <path d="M 154 320 L 154 340" fill="none" stroke="rgb(0,0,0)"/>
  <path d="M 154 340 L 398 340" fill="none" stroke="rgb(0,0,0)"/>
  <path d="M 398 340 L 398 352" fill="none" stroke="rgb(0,0,0)"/>
  <polygon fill="rgb(0,0,0)" points="398,359 394,352 402,352 398,359" stroke="rgb(0,0,0)"/>
  <path d="M 154 320 L 154 352" fill="none" stroke="rgb(0,0,0)"/>
  <polygon fill="rgb(0,0,0)" points="154,359 150,352 158,352 154,359" stroke="rgb(0,0,0)"/>
  <path d="M 154 320 L 154 340" fill="none" stroke="rgb(0,0,0)"/>
  <path d="M 154 340 L 642 340" fill="none" stroke="rgb(0,0,0)"/>
  <path d="M 642 340 L 642 352" fill="none" stroke="rgb(0,0,0)"/>
  <polygon fill="rgb(0,0,0)" points="642,359 638,352 646,352 642,359" stroke="rgb(0,0,0)"/>
  <path d="M 154 160 L 154 192" fill="none" stroke="rgb(0,0,0)"/>
  <polygon fill="rgb(0,0,0)" points="154,199 150,192 158,192 154,199" stroke="rgb(0,0,0)"/>
  <path d="M 154 320 L 154 340" fill="none" stroke="rgb(0,0,0)"/>
  <path d="M 154 340 L 398 340" fill="none" stroke="rgb(0,0,0)"/>
  <path d="M 398 340 L 398 352" fill="none" stroke="rgb(0,0,0)"/>
  <polygon fill="rgb(0,0,0)" points="398,359 394,352 402,352 398,359" stroke="rgb(0,0,0)"/>
  <path d="M 154 320 L 154 352" fill="none" stroke="rgb(0,0,0)"/>
  <polygon fill="rgb(0,0,0)" points="154,359 150,352 158,352 154,359" stroke="rgb(0,0,0)"/>
  <path d="M 154 320 L 154 340" fill="none" stroke="rgb(0,0,0)"/>
  <path d="M 154 340 L 642 340" fill="none" stroke="rgb(0,0,0)"/>
  <path d="M 642 340 L 642 352" fill="none" stroke="rgb(0,0,0)"/>
  <polygon fill="rgb(0,0,0)" points="642,359 638,352 646,352 642,359" stroke="rgb(0,0,0)"/>
  <path d="M 154 480 L 154 512" fill="none" stroke="rgb(0,0,0)"/>
  <polygon fill="rgb(0,0,0)" points="154,519 150,512 158,512 154,519" stroke="rgb(0,0,0)"/>
  <path d="M 154 480 L 154 500" fill="none" stroke="rgb(0,0,0)"/>
  <path d="M 154 500 L 398 500" fill="none" stroke="rgb(0,0,0)"/>
  <path d="M 398 500 L 398 512" fill="none" stroke="rgb(0,0,0)"/>
  <polygon fill="rgb(0,0,0)" points="398,519 394,512 402,512 398,519" stroke="rgb(0,0,0)"/>
  <path d="M 398 480 L 398 500" fill="none" stroke="rgb(0,0,0)"/>
  <path d="M 154 500 L 398 500" fill="none" stroke="rgb(0,0,0)"/>
  <path d="M 154 500 L 154 512" fill="none" stroke="rgb(0,0,0)"/>
  <polygon fill="rgb(0,0,0)" points="154,519 150,512 158,512 154,519" stroke="rgb(0,0,0)"/>
  <path d="M 398 480 L 398 512" fill="none" stroke="rgb(0,0,0)"/>
  <polygon fill="rgb(0,0,0)" points="398,519 394,512 402,512 398,519" stroke="rgb(0,0,0)"/>
  <path d="M 642 480 L 642 500" fill="none" stroke="rgb(0,0,0)"/>
  <path d="M 154 500 L 394.0 500" fill="none" stroke="rgb(0,0,0)"/>
  <path d="M 394.0 500.0 A4.0,4.0 0 0 1 402.0 500.0" fill="none" stroke="rgb(0,0,0)"/>
  <path d="M 402.0 500 L 642 500" fill="none" stroke="rgb(0,0,0)"/>
  <path d="M 154 500 L 154 512" fill="none" stroke="rgb(0,0,0)"/>
  <polygon fill="rgb(0,0,0)" points="154,519 150,512 158,512 154,519" stroke="rgb(0,0,0)"/>
  <path d="M 642 480 L 642 500" fill="none" stroke="rgb(0,0,0)"/>
  <path d="M 398 500 L 642 500" fill="none" stroke="rgb(0,0,0)"/>
  <path d="M 398 500 L 398 512" fill="none" stroke="rgb(0,0,0)"/>
  <polygon fill="rgb(0,0,0)" points="398,519 394,512 402,512 398,519" stroke="rgb(0,0,0)"/>
  <path d="M 154 480 L 154 512" fill="none" stroke="rgb(0,0,0)"/>
  <polygon fill="rgb(0,0,0)" points="154,519 150,512 158,512 154,519" stroke="rgb(0,0,0)"/>
  <path d="M 154 480 L 154 500" fill="none" stroke="rgb(0,0,0)"/>
  <path d="M 154 500 L 398 500" fill="none" stroke="rgb(0,0,0)"/>
  <path d="M 398 500 L 398 512" fill="none" stroke="rgb(0,0,0)"/>
  <polygon fill="rgb(0,0,0)" points="398,519 394,512 402,512 398,519" stroke="rgb(0,0,0)"/>
  <path d="M 398 480 L 398 500" fill="none" stroke="rgb(0,0,0)"/>
  <path d="M 154 500 L 398 500" fill="none" stroke="rgb(0,0,0)"/>
  <path d="M 154 500 L 154 512" fill="none" stroke="rgb(0,0,0)"/>
  <polygon fill="rgb(0,0,0)" points="154,519 150,512 158,512 154,519" stroke="rgb(0,0,0)"/>
  <path d="M 398 480 L 398 512" fill="none" stroke="rgb(0,0,0)"/>
  <polygon fill="rgb(0,0,0)" points="398,519 394,512 402,512 398,519" stroke="rgb(0,0,0)"/>
  <path d="M 642 480 L 642 500" fill="none" stroke="rgb(0,0,0)"/>
  <path d="M 154 500 L 394.0 500" fill="none" stroke="rgb(0,0,0)"/>
  <path d="M 394.0 500.0 A4.0,4.0 0 0 1 402.0 500.0" fill="none" stroke="rgb(0,0,0)"/>
  <path d="M 402.0 500 L 642 500" fill="none" stroke="rgb(0,0,0)"/>
  <path d="M 154 500 L 154 512" fill="none" stroke="rgb(0,0,0)"/>
  <polygon fill="rgb(0,0,0)" points="154,519 150,512 158,512 154,519" stroke="rgb(0,0,0)"/>
  <path d="M 642 480 L 642 500" fill="none" stroke="rgb(0,0,0)"/>
  <path d="M 398 500 L 642 500" fill="none" stroke="rgb(0,0,0)"/>
  <path d="M 398 500 L 398 512" fill="none" stroke="rgb(0,0,0)"/>
  <polygon fill="rgb(0,0,0)" points="398,519 394,512 402,512 398,519" stroke="rgb(0,0,0)"/>
  <path d="M 154 640 L 154 672" fill="none" stroke="rgb(0,0,0)"/>
  <polygon fill="rgb(0,0,0)" points="154,679 150,672 158,672 154,679" stroke="rgb(0,0,0)"/>
  <path d="M 154 800 L 154 832" fill="none" stroke="rgb(0,0,0)"/>
  <polygon fill="rgb(0,0,0)" points="154,839 150,832 158,832 154,839" stroke="rgb(0,0,0)"/>
  <path d="M 154 960 L 154 992" fill="none" stroke="rgb(0,0,0)"/>
  <polygon fill="rgb(0,0,0)" points="154,999 150,992 158,992 154,999" stroke="rgb(0,0,0)"/>
  <path d="M 398 640 L 398 980" fill="none" stroke="rgb(0,0,0)"/>
  <path d="M 154 980 L 398 980" fill="none" stroke="rgb(0,0,0)"/>
  <path d="M 154 980 L 154 992" fill="none" stroke="rgb(0,0,0)"/>
  <polygon fill="rgb(0,0,0)" points="154,999 150,992 158,992 154,999" stroke="rgb(0,0,0)"/>
  <path d="M 154 640 L 154 672" fill="none" stroke="rgb(0,0,0)"/>
  <polygon fill="rgb(0,0,0)" points="154,679 150,672 158,672 154,679" stroke="rgb(0,0,0)"/>
  <path d="M 154 800 L 154 832" fill="none" stroke="rgb(0,0,0)"/>
  <polygon fill="rgb(0,0,0)" points="154,839 150,832 158,832 154,839" stroke="rgb(0,0,0)"/>
  <path d="M 154 960 L 154 992" fill="none" stroke="rgb(0,0,0)"/>
  <polygon fill="rgb(0,0,0)" points="154,999 150,992 158,992 154,999" stroke="rgb(0,0,0)"/>
  <path d="M 398 640 L 398 980" fill="none" stroke="rgb(0,0,0)"/>
  <path d="M 154 980 L 398 980" fill="none" stroke="rgb(0,0,0)"/>
  <path d="M 154 980 L 154 992" fill="none" stroke="rgb(0,0,0)"/>
  <polygon fill="rgb(0,0,0)" points="154,999 150,992 158,992 154,999" stroke="rgb(0,0,0)"/>
  <rect fill="none" height="1100" stroke="rgb(243,152,0)" stroke-dasharray="0 196605" stroke-width="3" width="684" x="56" y="30"/>
  <rect fill="none" height="300" stroke="rgb(243,152,0)" stroke-dasharray="0 196605" stroke-width="3" width="196" x="56" y="30"/>
  <rect fill="none" height="140" stroke="rgb(243,152,0)" stroke-dasharray="0 196605" stroke-width="3" width="684" x="56" y="350"/>
  <rect fill="none" height="460" stroke="rgb(243,152,0)" stroke-dasharray="0 196605" stroke-width="3" width="440" x="56" y="510"/>
  <rect fill="none" height="140" stroke="rgb(243,152,0)" stroke-dasharray="0 196605" stroke-width="3" width="196" x="56" y="990"/>
  <text fill="rgb(0,0,0)" font-family="sans-serif" font-size="11" font-style="normal" font-weight="normal" text-anchor="middle" textLength="106" x="154.0" y="36">0. &#12527;&#12540;&#12463;&#12501;&#12525;&#12540;&#28310;&#20633;</text>
  <text fill="rgb(0,0,0)" font-family="sans-serif" font-size="11" font-style="normal" font-weight="normal" text-anchor="middle" textLength="106" x="398.0" y="356">1. &#30740;&#31350;&#28310;&#20633;&#12501;&#12455;&#12540;&#12474;</text>
  <text fill="rgb(0,0,0)" font-family="sans-serif" font-size="11" font-style="normal" font-weight="normal" text-anchor="middle" textLength="95" x="276.5" y="516">2. &#23455;&#39443;&#26399;&#12501;&#12455;&#12540;&#12474;</text>
  <text fill="rgb(0,0,0)" font-family="sans-serif" font-size="11" font-style="normal" font-weight="normal" text-anchor="middle" textLength="117" x="154.5" y="996">3. &#23455;&#39443;&#32066;&#20102;&#24460;&#12501;&#12455;&#12540;&#12474;</text>
</svg>
